. 
 
http://www.torrentday.com - Your Key To The Scene.
 
http://www.torrentday.com :  Clean RAR Scene Releases!


Enjoy =)

...................................NFO:....................................

.SPRiNTER proudly presents...



Crime.And.Punishment.1979.Part.02.DVDRip.XviD-SPRiNTER 
http://www.imdb.com/title/tt0078590/
Date: 2010.03


Director: Michael Darlow
Genre: Drama
Plot: John Hurt stars as the tormented Raskolnikov, a man who thinks himself above the law,
until he commits an act very much against it. With blood on his hands, he must now confront a
higher law -- his conscience -- as he begins his search for redemption.


Cast:

 Francesca Gerrard ...  Lida (3 episodes, 1979) 
 Fiona Glassbrook ...  Polenka (3 episodes, 1979) 
 John Hurt ...  Raskolnikov (3 episodes, 1979) 
 Anne Orwin ...  Nastasya (3 episodes, 1979) 
 Christine Ozanne ...  St. Petersburg citizen (3 episodes, 1979) 
 Sin Phillips ...  Katerina Ivanovna (3 episodes, 1979) 
 Nicky Stoter ...  Kolya (3 episodes, 1979) 
 Anthony Bate ...  Svidrigailov (2 episodes, 1979) 
 Yvonne Coulette ...  Raskoinikov's Mother (2 episodes, 1979) 
 Gordon Gostelow ...  Accuser (2 episodes, 1979) 


Release notes:
Source is 30fps but with some bad frames. Just check the vob for more info if you want! 
Enjoy!


Stats:
Format                           : AVI
Format/Info                      : Audio Video Interleave
File size                        : 701 MiB
Duration                         : 1h 15mn
Overall bit rate                 : 1 303 Kbps
Writing application              : VirtualDubMod 1.5.10.2 (build 2540/release)
Writing library                  : VirtualDubMod build 2540/release

Video
ID                               : 0
Format                           : MPEG-4 Visual
Format profile                   : AdvancedSimple@L5
Format settings, BVOP            : Yes
Format settings, QPel            : No
Format settings, GMC             : No warppoints
Format settings, Matrix          : Default (H.263)
Codec ID                         : XVID
Codec ID/Hint                    : XviD
Duration                         : 1h 15mn
Bit rate                         : 1 198 Kbps
Width                            : 592 pixels
Height                           : 448 pixels
Display aspect ratio             : 4:3
Frame rate                       : 29.970 fps
Resolution                       : 24 bits
Colorimetry                      : 4:2:0
Scan type                        : Progressive
Bits/(Pixel*Frame)               : 0.151
Stream size                      : 645 MiB (92%)
Writing library                  : XviD 1.2.1 (UTC 2008-12-04)

Audio
ID                               : 1
Format                           : MPEG Audio
Format version                   : Version 1
Format profile                   : Layer 3
Codec ID                         : 55
Codec ID/Hint                    : MP3
Duration                         : 1h 15mn
Bit rate mode                    : Variable
Bit rate                         : 90.9 Kbps
Minimum bit rate                 : 32.0 Kbps
Channel(s)                       : 1 channel
Sampling rate                    : 48.0 KHz
Resolution                       : 16 bits
Stream size                      : 48.9 MiB (7%)
Alignment                        : Aligned on interleaves
Interleave, duration             : 24 ms (0.72 video frame)
Interleave, preload duration     : 414 ms
Writing library                  : LAME3.95 
Encoding settings                : -m m -V 4 -q 3 -lowpass 18 --vbr-old -b 32